<svg version="1.2" xmlns="http://www.w3.org/2000/svg" viewBox="0 0 960 960" width="60" height="60">
	<title>logo</title>
	<style>
		.s0 { fill: #ffffff } 
		.s1 { fill: #0a4cc4 } 
	</style>
	<path fill-rule="evenodd" class="s0" d="m480 950c-259.9 0-470-210.1-470-470 0-259.9 210.1-470 470-470 259.9 0 470 210.1 470 470 0 259.9-210.1 470-470 470z"/>
	<g>
		<path class="s1" d="m587 188.9c0 1-41 43.2-76 78.2-12.4 12.4-31.5 31.9-42.5 43.4-26.4 27.6-51.8 53.7-63.5 65.6-5.2 5.3-18.5 19-29.5 30.5-11 11.4-24.3 25.1-29.5 30.4-12.4 12.7-27.1 27.8-63 65-43.8 45.3-63 65-77.5 79.6-13 13-61.6 63.1-73.2 75.4-5.5 5.8-6 6.7-4.8 8.3 1.3 1.8 12.6 1.8 321.4 1.1 176.1-0.4 320.1-0.3 320.1 0.1 0 0.7-11.2 14-13.1 15.5-2.8 2.3-18.9 21.6-18.9 22.6 0 0.8 0.1 1.4 0.3 1.4 1.9 0 16-6.4 53.2-24.2 31.5-15.1 35.1-16.8 35.8-16.8 0.3 0 15.7-7.5 34.2-16.6 27.4-13.5 33.4-16.8 32.5-18-1.2-1.4-16.9-9.2-80-39.9-20.1-9.7-45.7-22.3-56.9-27.8-11.3-5.6-20.8-10.4-21.3-10.5-2.2-0.9-0.3 2.1 4.5 7 6.9 7.1 26.4 28.9 28.3 31.7 1.4 1.9 1.4 2.2 0 2.7-2.2 0.8-464.3 0.1-465.1-0.8-0.8-0.8 11.8-19 22.2-32.3 3.1-3.9 7.5-10 11.3-15.7 4.7-7.1 24.5-34.5 41.5-57.7 5.5-7.5 11.3-15.6 12.9-18.1 1.6-2.5 5.7-8.2 9-12.6 3.4-4.5 10.3-13.9 15.3-21 5.1-7.1 13.6-18.8 18.8-25.9 5.3-7.2 12.5-17.3 16-22.5 3.6-5.2 11.4-16.3 17.5-24.5 6.1-8.3 13.8-19 17.3-23.8 3.4-4.8 9.6-13.4 13.8-19 4.1-5.6 9.5-13.1 11.9-16.7 2.4-3.6 8.2-11.7 13-18 4.7-6.3 9.4-12.9 10.4-14.5 1.7-2.8 8.4-12 23.1-31.9 3.3-4.5 8-11 10.4-14.6 2.4-3.6 8.3-11.6 13-17.9 12.5-16.4 11.5-14.9 10.1-16.6-1.4-1.7-3-2-3-0.6z"/>
		<path class="s1" d="m231.5 182.7c-1.6 2.1-6.6 8.1-11.1 13.3-4.5 5.2-12.3 14.4-17.4 20.5-5 6-16.9 20.2-26.3 31.3-9.5 11.2-20.3 24.3-24 29-3.7 4.8-8.9 10.9-11.6 13.7-2.6 2.7-7.4 8.3-10.6 12.4l-5.8 7.4 2.3 1.7c2.3 1.8 2.6 1.7 9.9-2.3 4.2-2.2 10.5-5.9 14.1-8.2 3.6-2.2 11.3-6.8 17.3-10 5.9-3.3 19.6-11.2 30.5-17.6 10.8-6.3 23.8-13.9 28.8-16.7l9.2-5.2h72.6c46.3 0 72.6 0.4 72.6 1 0 0.8-26.2 36.5-27.9 38-0.3 0.3-2.6 3.4-5 7-2.5 3.6-6.7 9.3-9.5 12.8-2.8 3.5-9.3 12.3-14.6 19.6-5.2 7.3-13 18-17.3 23.7-20.7 27.7-30 40.2-38.5 51.8-5.1 6.9-12.7 17.1-16.8 22.6-4.2 5.5-10.7 14.3-14.5 19.5-3.8 5.2-7.2 9.9-7.6 10.5-13 17-16.4 21.6-18.4 24.7-1.3 2-6.4 8.9-11.3 15.5-12.3 16.2-24.5 32.7-29.1 39.3-2.1 3-5.7 7.7-8 10.5-2.3 2.7-6.8 8.8-10.1 13.5-3.2 4.7-8.8 12.3-12.5 17-3.7 4.7-9.1 11.9-12 16.2-3 4.2-7.9 10.9-11 15-6.3 8.3-19.3 25.8-29.3 39.5-5.8 7.9-6.6 9.5-5.6 11.2 0.6 1.2 1.4 2.1 1.9 2.1 0.4 0 3.2-2.6 6.2-5.8 2.9-3.1 17.9-18.7 33.4-34.6 15.4-15.9 35.7-36.8 45-46.5 9.4-9.7 21.7-22.4 27.5-28.2 5.8-5.9 19.3-19.8 30-31 10.7-11.2 22.2-22.9 25.4-25.9 3.3-3 8.7-8.4 12.1-12 16.2-17.3 51.3-53.8 102-106 9.9-10.2 23-23.7 29.1-30 6.1-6.3 21.2-21.9 33.5-34.5 12.3-12.7 26.4-27.2 31.4-32.4 13-13.7 33.9-35.1 61.1-62.9 13.1-13.4 24.2-25 24.7-25.8 0.5-0.8 0.5-2.3 0.2-3.4-0.6-1.9-1.6-2-17.8-2-57-0.1-289.6-2.1-291.8-2.5-2.1-0.5-3.1 0.1-5.4 3.2z"/>
		<path class="s1" d="m464.7 449c-9.9 2.5-18.9 9.9-23.6 19.5-3.4 6.9-20.1 70.3-22.1 84-2.7 18.2 6.5 27.6 26 26.2 14.2-0.9 25.1-8.1 31.4-20.6 2.4-4.6 20.3-73.6 22.1-84.8 0.8-5.4-1-14.4-3.7-17.8-3.5-4.5-9.4-6.8-18.3-7.1-4.4-0.2-9.7 0.1-11.8 0.6zm11.1 18.6c1.7 1.2 2.2 2.5 2.2 6.2-0.1 7.2-18.3 78.5-21 81.9-2.9 3.8-5.8 5.2-10.2 5.3-5 0-7.8-2.8-7.8-7.8 0-4.7 17.4-74.4 19.9-79.8 3-6.5 11.7-9.5 16.9-5.8z"/>
		<path class="s1" d="m517.5 451.2c-0.5 1.5-12.1 47.6-14 55.8-0.7 3-3.6 14.7-6.5 26-4.3 17.3-5.1 21.5-4.7 27.2 0.5 8.1 2.9 12.4 8.9 15.8 3.8 2.2 5.5 2.5 14.8 2.5 9.4 0 11-0.3 15.6-2.7 9.3-4.9 15.1-11.2 18.8-20.7 1.5-3.8 26.6-102.3 26.6-104.3 0-0.5-4.3-0.8-9.5-0.8-5.2 0-9.5 0.2-9.5 0.4 0 2-25.4 101.4-26.4 103.4-2.3 4.5-5.3 6.5-10.4 7-4.4 0.4-5.1 0.2-7-2.3-1.2-1.5-2.2-3.5-2.2-4.4 0-0.9 5.6-24.2 12.5-51.8 6.9-27.6 12.5-50.6 12.5-51.2 0-1.6-18.9-1.5-19.5 0.1z"/>
		<path class="s1" d="m591.5 451.2c-0.2 0.7-7.2 28.7-15.5 62.3-8.3 33.5-15.3 61.6-15.5 62.2-0.3 1 2 1.3 9.4 1.3h9.8l1.7-5.8c0.9-3.1 4.6-17.9 8.2-32.7 3.6-14.9 7.6-31.1 8.9-36 4.8-17.9 12.5-49.4 12.5-50.9 0-1.4-1.5-1.6-9.5-1.6-6.8 0-9.7 0.4-10 1.2z"/>
		<path class="s1" d="m626.5 451.2c-0.3 1.2-28.7 115-30.5 122.5l-0.8 3.3h8.8 8.8l10.7-43.3c5.9-23.7 11.1-43.9 11.6-44.7 0.5-1 0.9 0.7 1 4.5 0 3.3 0.2 8.7 0.3 12 0.1 3.3 0.2 20.7 0.4 38.7l0.2 32.8h10.5c5.8 0 10.5-0.2 10.5-0.5 0-0.4 3.7-15.3 24.6-98.8 3.5-14.2 6.4-26.2 6.4-26.8 0-0.6-3.4-0.9-8.6-0.7l-8.6 0.3-9 36.2c-5 20-9.4 36.3-9.9 36.3-0.5 0-0.9-16.3-0.9-36.5v-36.5h-12.5c-9.2 0-12.7 0.3-13 1.2z"/>
		<path class="s1" d="m704.5 451.2c-0.2 0.7-7.2 28.5-15.5 61.8-8.3 33.3-15.3 61.3-15.6 62.2-0.5 1.7 1.2 1.8 26.8 1.8h27.4l1.7-7.3c2.8-11.6 4.1-10.6-14.5-10.4-14.1 0.1-16.3-0.1-16.6-1.4-0.2-1.4 3.3-16.8 7.9-34.2l1-3.7h13.8 13.7l1.9-7.8c1-4.2 2-8.3 2.2-9 0.4-0.9-2.6-1.2-13.1-1.2-8.9 0-13.6-0.4-13.6-1.1 0-0.9 4.1-17.9 7.1-29.2l1-3.7h17 16.9l1-2.6c0.6-1.5 1.5-4.7 2.1-7.3 0.5-2.5 1.2-5.4 1.5-6.4 0.5-1.6-1.2-1.7-26.6-1.7-20.7 0-27.2 0.3-27.5 1.2z"/>
		<path class="s1" d="m261.6 717.8c-0.5 0.8-0.9 20.8-0.7 31.4l0.1 3.8h13.1c9.1 0 13-0.3 12.7-1.1-0.2-0.7-4.3-1.2-11.1-1.3-12.6-0.1-12.7-0.2-12.7-9.3v-6.2l8.5-0.3c4.8-0.2 8.5-0.7 8.5-1.3 0-0.6-3.7-1.2-8.2-1.5l-8.3-0.5-0.3-5.8-0.3-5.7h12.1c9.3 0 12.1-0.3 11.8-1.3-0.5-1.4-24.3-2.3-25.2-0.9z"/>
		<path class="s1" d="m357.3 718.6c-4.4 2.2-5.6 6.5-5.1 19.2 0.4 13.8 1.2 14.6 14.4 15 10.6 0.4 12.4-0.3 12.4-5 0-3.4-2.3-3.4-2.8 0-0.3 2.1-0.9 2.2-9.1 2.2-11.9 0-12.1-0.3-12.1-14.6 0-13.9 0.4-14.6 9.4-15.2 8.4-0.5 11.6 0.2 11.6 2.8 0 1.1 0.7 2 1.5 2 2.1 0 1.9-4.3-0.3-6.3-2.5-2.3-15.4-2.3-19.9-0.1z"/>
		<path class="s1" d="m497.7 717.7c-1.1 1.1-0.8 36.3 0.3 36.3 0.6 0 1-3.6 1-8.9 0-5.7 0.4-9.2 1.2-9.7 0.6-0.4 3.4-0.6 6.2-0.5 2.8 0.1 6.3-0.1 7.8-0.5 5.4-1.1 2.7-2.3-5.9-2.6l-8.8-0.3v-5.5-5.5l11.8-0.3c9.5-0.2 11.7-0.5 11.7-1.7 0-1.2-2.2-1.5-12.3-1.5-6.8 0-12.7 0.3-13 0.7z"/>
		<path class="s1" d="m544.5 718c-0.9 1.5 0.3 3 2.4 3 2.3 0 3.1-0.9 2.4-2.6-0.6-1.6-3.9-1.9-4.8-0.4z"/>
		<path class="s1" d="m545.7 727.7c-0.9 0.8-0.9 22.6-0.1 24.7 1.6 4.2 2.4 0.4 2.4-11.9 0-12.3-0.4-14.7-2.3-12.8z"/>
		<path class="s1" d="m408.4 728.7c-4.1 0.8-5.8 4-6.2 11.3-0.4 6.7-0.3 7.1 2.7 10.1 3.1 3.1 3.2 3.1 12.2 2.7 11.6-0.4 12.9-1.6 12.9-11.8 0-8.3-0.5-9.7-4.1-11.5-2.6-1.4-12.3-1.8-17.5-0.8zm16.7 3.3c1.6 0.9 1.9 2.2 1.9 8.5 0 9-0.6 9.5-11.4 9.5-9.6 0-10.6-0.9-10.6-9.5 0-8.6 1-9.5 10.6-9.5 4.2 0 8.4 0.5 9.5 1z"/>
		<path class="s1" d="m573.9 730.1c-1.6 1.6-2 2.8-1.5 5.3 0.9 4.7 2.9 5.6 12.7 5.6 9.6 0 11.3 0.9 10.7 5.7l-0.3 2.8h-10c-9.6 0-10-0.1-10.3-2.3-0.5-3-3.2-2.9-3.2 0.2 0 4.6 2.2 5.6 13.1 5.6 8.6 0 10.2-0.3 11.9-2 2.5-2.5 2.6-7.1 0.1-10.1-1.7-2.1-2.9-2.4-11.8-2.9l-9.8-0.5v-3-3l9.8-0.3c9.6-0.3 9.7-0.2 10.7 2.3 1.2 3.2 3 3.2 3 0.1 0-4.6-2.2-5.6-13.1-5.6-8.7 0-10.1 0.2-12 2.1z"/>
		<path class="s1" d="m626.9 729.1c-3.4 1.3-4.9 4.7-4.9 11.4 0 10.3 2.8 12.5 15.7 12.5 9.1 0 11.3-1 11.3-5.1 0-3.5-2.3-3.6-2.8-0.1-0.3 2.1-0.9 2.2-9.7 2.2-11.1 0-11.5-0.4-11.5-9.9 0-8.4 1-9.1 12-9.1 8.3 0 8.9 0.1 9.2 2.2 0.4 3.1 2.8 3.5 2.8 0.5 0-4.6-2.3-5.7-11.3-5.6-4.5 0-9.4 0.5-10.8 1z"/>
		<path class="s1" d="m676.9 729.1c-3.5 1.3-4.9 4.8-4.9 12.2 0.1 9.3 2.8 11.7 13.3 11.7 8.1 0 12.6-1.5 13.8-4.7 1.2-3.2 1.2-13.9-0.1-16.3-0.5-1-2.4-2.3-4.1-2.9-3.8-1.3-14.4-1.3-18 0zm18.5 3.5c1.1 1.1 1.6 3.5 1.6 7.9 0 8.6-1 9.5-11 9.5-10 0-11-0.9-11-9.5 0-8.6 1-9.5 11-9.5 5.8 0 8.3 0.4 9.4 1.6z"/>
		<path class="s1" d="m311 740.5c0 1.2 1.6 1.5 8.5 1.5 6.9 0 8.5-0.3 8.5-1.5 0-1.2-1.6-1.5-8.5-1.5-6.9 0-8.5 0.3-8.5 1.5z"/>
		<path class="s1" d="m454.5 740c-0.3 0.5 0 1.3 0.8 1.6 2.4 0.9 16.2 0 16.2-1.1 0-1.4-16.1-1.9-17-0.5z"/>
	</g>
</svg>