<?xml version="1.0" standalone="no"?>
<!DOCTYPE svg PUBLIC "-//W3C//DTD SVG 20010904//EN"
 "http://www.w3.org/TR/2001/REC-SVG-20010904/DTD/svg10.dtd">
<svg version="1.0" xmlns="http://www.w3.org/2000/svg"
 width="512.000000pt" height="512.000000pt" viewBox="0 0 512.000000 512.000000"
 preserveAspectRatio="xMidYMid meet">

<g transform="translate(0.000000,512.000000) scale(0.100000,-0.100000)"
fill="#000000" stroke="none">
<path d="M1153 4985 c-55 -28 -99 -77 -119 -134 -10 -28 -13 -180 -13 -671
l-1 -635 24 -50 c25 -54 71 -100 123 -122 23 -9 85 -13 218 -13 l185 0 2 -270
3 -270 224 270 224 270 391 0 391 0 52 30 c28 16 61 43 72 59 51 71 51 70 51
728 0 435 -3 628 -12 661 -15 60 -96 145 -153 161 -27 7 -290 11 -826 11
l-785 0 -51 -25z m402 -685 c49 -24 75 -64 75 -117 0 -131 -172 -182 -240 -70
-42 68 -17 156 53 188 53 23 61 23 112 -1z m500 0 c49 -24 75 -64 75 -117 0
-131 -172 -182 -240 -70 -42 68 -17 156 53 188 53 23 61 23 112 -1z m501 0
c125 -61 79 -250 -61 -250 -65 0 -125 63 -125 133 0 56 25 96 73 118 53 24 61
23 113 -1z"/>
<path d="M3140 3892 c0 -366 -5 -411 -55 -497 -36 -60 -116 -132 -183 -163
l-57 -27 -367 -3 -368 -3 0 -220 c0 -162 4 -228 13 -252 22 -52 68 -98 122
-123 50 -24 52 -24 435 -24 l385 0 220 -265 220 -266 5 263 5 263 190 5 c112
3 201 10 217 17 47 21 106 83 125 131 17 44 18 93 18 677 0 695 2 675 -64 748
-69 77 -68 77 -488 77 l-373 0 0 -338z"/>
<path d="M205 3686 c-17 -7 -45 -30 -64 -51 -31 -36 -33 -42 -27 -88 4 -27 22
-99 41 -160 45 -149 543 -1474 585 -1557 53 -106 93 -154 331 -395 220 -224
227 -233 272 -325 47 -99 82 -221 93 -328 l7 -62 472 0 473 0 7 160 c16 343
-24 622 -115 817 -76 162 -113 204 -376 424 -111 92 -255 217 -319 276 -293
271 -307 281 -399 289 -62 6 -110 -16 -143 -65 -79 -118 57 -342 400 -663 149
-139 166 -159 167 -196 0 -32 -43 -72 -79 -72 -33 0 -58 19 -218 169 -379 354
-522 626 -434 826 l21 47 -82 155 c-44 85 -120 240 -168 343 -106 231 -150
307 -217 376 -80 84 -158 111 -228 80z"/>
<path d="M4820 3081 c-103 -32 -188 -129 -276 -310 -36 -75 -124 -253 -195
-396 l-129 -261 21 -41 c61 -124 15 -300 -129 -492 -95 -127 -173 -210 -335
-362 -138 -129 -152 -139 -187 -139 -30 0 -43 6 -59 26 -42 53 -36 62 182 278
208 205 303 319 353 423 72 150 21 268 -115 268 -87 -1 -134 -30 -314 -198
-149 -138 -306 -274 -547 -474 -52 -43 -116 -105 -143 -138 -59 -73 -138 -232
-166 -336 -47 -169 -67 -413 -56 -659 l7 -160 472 0 471 0 18 110 c21 128 59
243 108 327 22 37 115 141 260 288 234 239 266 277 323 391 42 84 545 1427
585 1563 44 149 47 179 19 220 -42 63 -108 91 -168 72z"/>
</g>
</svg>
